<svg width="793" height="728" viewBox="0 0 793 728" fill="none" xmlns="http://www.w3.org/2000/svg">
<g id="undraw_recording_re_5xyq 1" clip-path="url(#clip0_1_2)">
<g id="Telefon">
<path id="Vector" d="M362.889 343.716H359.254V267.888C359.254 256.248 353.182 245.085 342.373 236.854C331.564 228.624 316.904 224 301.618 224H90.6364C83.0675 224 75.5727 225.135 68.5799 227.341C61.5872 229.546 55.2334 232.779 49.8813 236.854C44.5293 240.93 40.2838 245.768 37.3873 251.092C34.4908 256.417 33 262.124 33 267.888V683.89C33 689.654 34.4908 695.361 37.3873 700.685C40.2837 706.01 44.5292 710.848 49.8812 714.924C55.2332 718.999 61.587 722.232 68.5798 724.437C75.5725 726.643 83.0673 727.778 90.6362 727.778H301.618C316.904 727.778 331.564 723.154 342.373 714.924C353.182 706.693 359.254 695.53 359.254 683.89V397.693H362.889V343.716Z" fill="#E6E6E6"/>
<path id="Vector_2" d="M303.943 235.418H276.403C277.67 237.782 278.153 240.348 277.811 242.888C277.469 245.428 276.311 247.865 274.441 249.984C272.571 252.104 270.044 253.84 267.085 255.041C264.125 256.242 260.823 256.87 257.47 256.87H136.602C133.248 256.87 129.946 256.242 126.987 255.041C124.027 253.84 121.501 252.104 119.631 249.984C117.76 247.865 116.603 245.428 116.261 242.888C115.918 240.348 116.402 237.782 117.668 235.418H91.9458C80.5304 235.418 69.5824 238.871 61.5104 245.017C53.4385 251.164 48.9037 259.5 48.9037 268.193V683.585C48.9037 687.889 50.017 692.151 52.18 696.128C54.3431 700.104 57.5136 703.717 61.5104 706.76C65.5072 709.804 70.2521 712.218 75.4743 713.865C80.6964 715.512 86.2934 716.36 91.9458 716.36H303.943C309.596 716.36 315.193 715.512 320.415 713.865C325.637 712.218 330.382 709.804 334.379 706.76C338.376 703.717 341.546 700.104 343.709 696.128C345.872 692.151 346.985 687.889 346.985 683.585V683.585V268.193C346.985 263.889 345.872 259.627 343.709 255.65C341.546 251.674 338.376 248.061 334.379 245.018C330.382 241.974 325.637 239.56 320.415 237.913C315.193 236.266 309.596 235.418 303.943 235.418V235.418Z" fill="white"/>
<path id="Vector_3" d="M75.221 430.922C74.9799 430.922 74.7487 430.849 74.5782 430.72C74.4078 430.59 74.312 430.414 74.312 430.23V406.003C74.312 405.819 74.4078 405.643 74.5782 405.513C74.7487 405.383 74.9799 405.31 75.221 405.31C75.4621 405.31 75.6934 405.383 75.8638 405.513C76.0343 405.643 76.1301 405.819 76.1301 406.003V430.23C76.1301 430.414 76.0343 430.59 75.8638 430.72C75.6934 430.849 75.4621 430.922 75.221 430.922Z" fill="#CCCCCC"/>
<path id="Vector_4" d="M81.5845 434.73C81.3434 434.73 81.1122 434.657 80.9417 434.527C80.7712 434.397 80.6754 434.221 80.6754 434.037V402.195C80.6754 402.012 80.7712 401.836 80.9417 401.706C81.1122 401.576 81.3434 401.503 81.5845 401.503C81.8256 401.503 82.0568 401.576 82.2273 401.706C82.3978 401.836 82.4936 402.012 82.4936 402.195V434.037C82.4936 434.221 82.3978 434.397 82.2273 434.527C82.0568 434.657 81.8256 434.73 81.5845 434.73Z" fill="#CCCCCC"/>
<path id="Vector_5" d="M87.9479 437.152C87.7068 437.152 87.4756 437.079 87.3051 436.95C87.1346 436.82 87.0389 436.644 87.0389 436.46V399.773C87.0389 399.589 87.1346 399.413 87.3051 399.283C87.4756 399.153 87.7068 399.081 87.9479 399.081C88.189 399.081 88.4203 399.153 88.5907 399.283C88.7612 399.413 88.857 399.589 88.857 399.773V436.46C88.857 436.644 88.7612 436.82 88.5907 436.95C88.4203 437.079 88.189 437.152 87.9479 437.152Z" fill="#CCCCCC"/>
<path id="Vector_6" d="M94.3114 443.382C94.0703 443.382 93.839 443.309 93.6686 443.179C93.4981 443.05 93.4023 442.874 93.4023 442.69V393.543C93.4023 393.359 93.4981 393.183 93.6686 393.053C93.839 392.924 94.0703 392.851 94.3114 392.851C94.5525 392.851 94.7837 392.924 94.9542 393.053C95.1247 393.183 95.2204 393.359 95.2204 393.543V442.69C95.2204 442.874 95.1247 443.05 94.9542 443.179C94.7837 443.309 94.5525 443.382 94.3114 443.382Z" fill="#CCCCCC"/>
<path id="Vector_7" d="M100.675 452.727C100.434 452.727 100.202 452.654 100.032 452.524C99.8615 452.395 99.7657 452.218 99.7657 452.035V384.198C99.7657 384.014 99.8615 383.838 100.032 383.708C100.202 383.579 100.434 383.506 100.675 383.506C100.916 383.506 101.147 383.579 101.318 383.708C101.488 383.838 101.584 384.014 101.584 384.198V452.035C101.584 452.218 101.488 452.395 101.318 452.524C101.147 452.654 100.916 452.727 100.675 452.727Z" fill="#CCCCCC"/>
<path id="Vector_8" d="M107.038 443.382C106.797 443.382 106.566 443.309 106.395 443.179C106.225 443.05 106.129 442.874 106.129 442.69V393.543C106.129 393.359 106.225 393.183 106.395 393.053C106.566 392.924 106.797 392.851 107.038 392.851C107.279 392.851 107.511 392.924 107.681 393.053C107.852 393.183 107.947 393.359 107.947 393.543V442.69C107.947 442.874 107.852 443.05 107.681 443.179C107.511 443.309 107.279 443.382 107.038 443.382Z" fill="#CCCCCC"/>
<path id="Vector_9" d="M113.402 447.882C113.161 447.882 112.929 447.809 112.759 447.679C112.588 447.549 112.493 447.373 112.493 447.189V389.043C112.493 388.86 112.588 388.684 112.759 388.554C112.929 388.424 113.161 388.351 113.402 388.351C113.643 388.351 113.874 388.424 114.044 388.554C114.215 388.684 114.311 388.86 114.311 389.043V447.189C114.311 447.373 114.215 447.549 114.044 447.679C113.874 447.809 113.643 447.882 113.402 447.882Z" fill="#CCCCCC"/>
<path id="Vector_10" d="M119.765 436.114C119.524 436.114 119.293 436.041 119.122 435.911C118.952 435.781 118.856 435.605 118.856 435.422V400.811C118.856 400.627 118.952 400.451 119.122 400.322C119.293 400.192 119.524 400.119 119.765 400.119C120.006 400.119 120.237 400.192 120.408 400.322C120.578 400.451 120.674 400.627 120.674 400.811V435.422C120.674 435.605 120.578 435.781 120.408 435.911C120.237 436.041 120.006 436.114 119.765 436.114Z" fill="#CCCCCC"/>
<path id="Vector_11" d="M126.129 438.883C125.888 438.883 125.656 438.81 125.486 438.68C125.315 438.55 125.22 438.374 125.22 438.191V398.042C125.22 397.859 125.315 397.683 125.486 397.553C125.656 397.423 125.888 397.35 126.129 397.35C126.37 397.35 126.601 397.423 126.771 397.553C126.942 397.683 127.038 397.859 127.038 398.042V438.191C127.038 438.374 126.942 438.55 126.771 438.68C126.601 438.81 126.37 438.883 126.129 438.883Z" fill="#CCCCCC"/>
<path id="Vector_12" d="M132.492 430.922C132.251 430.922 132.02 430.849 131.849 430.72C131.679 430.59 131.583 430.414 131.583 430.23V406.003C131.583 405.819 131.679 405.643 131.849 405.513C132.02 405.383 132.251 405.31 132.492 405.31C132.733 405.31 132.964 405.383 133.135 405.513C133.305 405.643 133.401 405.819 133.401 406.003V430.23C133.401 430.414 133.305 430.59 133.135 430.72C132.964 430.849 132.733 430.922 132.492 430.922Z" fill="#CCCCCC"/>
<path id="Vector_13" d="M137.946 430.922C137.705 430.922 137.474 430.849 137.304 430.72C137.133 430.59 137.037 430.414 137.037 430.23V406.003C137.037 405.819 137.133 405.643 137.304 405.513C137.474 405.383 137.705 405.31 137.946 405.31C138.188 405.31 138.419 405.383 138.589 405.513C138.76 405.643 138.855 405.819 138.855 406.003V430.23C138.855 430.414 138.76 430.59 138.589 430.72C138.419 430.849 138.188 430.922 137.946 430.922Z" fill="#CCCCCC"/>
<path id="Vector_14" d="M144.31 434.73C144.069 434.73 143.838 434.657 143.667 434.527C143.497 434.397 143.401 434.221 143.401 434.037V402.195C143.401 402.012 143.497 401.836 143.667 401.706C143.838 401.576 144.069 401.503 144.31 401.503C144.551 401.503 144.782 401.576 144.953 401.706C145.123 401.836 145.219 402.012 145.219 402.195V434.037C145.219 434.221 145.123 434.397 144.953 434.527C144.782 434.657 144.551 434.73 144.31 434.73Z" fill="#CCCCCC"/>
<path id="Vector_15" d="M150.673 437.152C150.432 437.152 150.201 437.079 150.03 436.95C149.86 436.82 149.764 436.644 149.764 436.46V399.773C149.764 399.589 149.86 399.413 150.03 399.283C150.201 399.153 150.432 399.081 150.673 399.081C150.914 399.081 151.146 399.153 151.316 399.283C151.487 399.413 151.582 399.589 151.582 399.773V436.46C151.582 436.644 151.487 436.82 151.316 436.95C151.146 437.079 150.914 437.152 150.673 437.152Z" fill="#CCCCCC"/>
<path id="Vector_16" d="M157.037 443.382C156.796 443.382 156.564 443.309 156.394 443.179C156.223 443.05 156.128 442.874 156.128 442.69V393.543C156.128 393.359 156.223 393.183 156.394 393.053C156.564 392.924 156.796 392.851 157.037 392.851C157.278 392.851 157.509 392.924 157.68 393.053C157.85 393.183 157.946 393.359 157.946 393.543V442.69C157.946 442.874 157.85 443.05 157.68 443.179C157.509 443.309 157.278 443.382 157.037 443.382Z" fill="#CCCCCC"/>
<path id="Vector_17" d="M163.4 463.802C163.159 463.802 162.928 463.73 162.757 463.6C162.587 463.47 162.491 463.294 162.491 463.11V373.122C162.491 372.939 162.587 372.763 162.757 372.633C162.928 372.503 163.159 372.43 163.4 372.43C163.641 372.43 163.872 372.503 164.043 372.633C164.213 372.763 164.309 372.939 164.309 373.122V463.11C164.309 463.294 164.213 463.47 164.043 463.6C163.872 463.73 163.641 463.802 163.4 463.802Z" fill="#CCCCCC"/>
<path id="Vector_18" d="M169.764 443.382C169.523 443.382 169.291 443.309 169.121 443.179C168.95 443.05 168.855 442.874 168.855 442.69V393.543C168.855 393.359 168.95 393.183 169.121 393.053C169.291 392.924 169.523 392.851 169.764 392.851C170.005 392.851 170.236 392.924 170.406 393.053C170.577 393.183 170.673 393.359 170.673 393.543V442.69C170.673 442.874 170.577 443.05 170.406 443.179C170.236 443.309 170.005 443.382 169.764 443.382Z" fill="#CCCCCC"/>
<path id="Vector_19" d="M176.127 447.882C175.886 447.882 175.655 447.809 175.484 447.679C175.314 447.549 175.218 447.373 175.218 447.189V389.043C175.218 388.86 175.314 388.684 175.484 388.554C175.655 388.424 175.886 388.351 176.127 388.351C176.368 388.351 176.599 388.424 176.77 388.554C176.94 388.684 177.036 388.86 177.036 389.043V447.189C177.036 447.373 176.94 447.549 176.77 447.679C176.599 447.809 176.368 447.882 176.127 447.882Z" fill="#CCCCCC"/>
<path id="Vector_20" d="M182.491 436.114C182.249 436.114 182.018 436.041 181.848 435.911C181.677 435.781 181.581 435.605 181.581 435.422V400.811C181.581 400.627 181.677 400.451 181.848 400.322C182.018 400.192 182.249 400.119 182.491 400.119C182.732 400.119 182.963 400.192 183.133 400.322C183.304 400.451 183.4 400.627 183.4 400.811V435.422C183.4 435.605 183.304 435.781 183.133 435.911C182.963 436.041 182.732 436.114 182.491 436.114Z" fill="#CCCCCC"/>
<path id="Vector_21" d="M188.854 438.883C188.613 438.883 188.382 438.81 188.211 438.68C188.041 438.55 187.945 438.374 187.945 438.191V398.042C187.945 397.859 188.041 397.683 188.211 397.553C188.382 397.423 188.613 397.35 188.854 397.35C189.095 397.35 189.326 397.423 189.497 397.553C189.667 397.683 189.763 397.859 189.763 398.042V438.191C189.763 438.374 189.667 438.55 189.497 438.68C189.326 438.81 189.095 438.883 188.854 438.883Z" fill="#CCCCCC"/>
<path id="Vector_22" d="M195.217 430.922C194.976 430.922 194.745 430.849 194.575 430.72C194.404 430.59 194.308 430.414 194.308 430.23V406.003C194.308 405.819 194.404 405.643 194.575 405.513C194.745 405.383 194.976 405.31 195.217 405.31C195.459 405.31 195.69 405.383 195.86 405.513C196.031 405.643 196.126 405.819 196.126 406.003V430.23C196.126 430.414 196.031 430.59 195.86 430.72C195.69 430.849 195.459 430.922 195.217 430.922Z" fill="#CCCCCC"/>
<path id="Vector_23" d="M200.672 430.922C200.431 430.922 200.199 430.849 200.029 430.72C199.858 430.59 199.763 430.414 199.763 430.23V406.003C199.763 405.819 199.858 405.643 200.029 405.513C200.199 405.383 200.431 405.31 200.672 405.31C200.913 405.31 201.144 405.383 201.315 405.513C201.485 405.643 201.581 405.819 201.581 406.003V430.23C201.581 430.414 201.485 430.59 201.315 430.72C201.144 430.849 200.913 430.922 200.672 430.922Z" fill="#CCCCCC"/>
<path id="Vector_24" d="M207.035 434.73C206.794 434.73 206.563 434.657 206.392 434.527C206.222 434.397 206.126 434.221 206.126 434.037V402.195C206.126 402.012 206.222 401.836 206.392 401.706C206.563 401.576 206.794 401.503 207.035 401.503C207.276 401.503 207.508 401.576 207.678 401.706C207.849 401.836 207.944 402.012 207.944 402.195V434.037C207.944 434.221 207.849 434.397 207.678 434.527C207.508 434.657 207.276 434.73 207.035 434.73Z" fill="#CCCCCC"/>
<path id="Vector_25" d="M213.399 437.152C213.158 437.152 212.926 437.079 212.756 436.95C212.585 436.82 212.49 436.644 212.49 436.46V399.773C212.49 399.589 212.585 399.413 212.756 399.283C212.926 399.153 213.158 399.081 213.399 399.081C213.64 399.081 213.871 399.153 214.041 399.283C214.212 399.413 214.308 399.589 214.308 399.773V436.46C214.308 436.644 214.212 436.82 214.041 436.95C213.871 437.079 213.64 437.152 213.399 437.152Z" fill="#CCCCCC"/>
<path id="Vector_26" d="M219.762 443.382C219.521 443.382 219.29 443.309 219.119 443.179C218.949 443.05 218.853 442.874 218.853 442.69V393.543C218.853 393.359 218.949 393.183 219.119 393.053C219.29 392.924 219.521 392.851 219.762 392.851C220.003 392.851 220.234 392.924 220.405 393.053C220.575 393.183 220.671 393.359 220.671 393.543V442.69C220.671 442.874 220.575 443.05 220.405 443.179C220.234 443.309 220.003 443.382 219.762 443.382Z" fill="#CCCCCC"/>
<path id="Vector_27" d="M226.126 452.727C225.884 452.727 225.653 452.654 225.483 452.524C225.312 452.395 225.216 452.218 225.216 452.035V384.198C225.216 384.014 225.312 383.838 225.483 383.708C225.653 383.579 225.884 383.506 226.126 383.506C226.367 383.506 226.598 383.579 226.768 383.708C226.939 383.838 227.035 384.014 227.035 384.198V452.035C227.035 452.218 226.939 452.395 226.768 452.524C226.598 452.654 226.367 452.727 226.126 452.727Z" fill="#CCCCCC"/>
<path id="Vector_28" d="M230.671 483.358C230.43 483.358 230.199 483.285 230.028 483.155C229.858 483.025 229.762 482.849 229.762 482.665V353.567C229.762 353.384 229.858 353.208 230.028 353.078C230.199 352.948 230.43 352.875 230.671 352.875C230.912 352.875 231.143 352.948 231.314 353.078C231.484 353.208 231.58 353.384 231.58 353.567V482.665C231.58 482.849 231.484 483.025 231.314 483.155C231.143 483.285 230.912 483.358 230.671 483.358Z" fill="#6C63FF"/>
<path id="Vector_29" d="M232.489 443.382C232.248 443.382 232.017 443.309 231.846 443.179C231.676 443.05 231.58 442.874 231.58 442.69V393.543C231.58 393.359 231.676 393.183 231.846 393.053C232.017 392.924 232.248 392.851 232.489 392.851C232.73 392.851 232.961 392.924 233.132 393.053C233.302 393.183 233.398 393.359 233.398 393.543V442.69C233.398 442.874 233.302 443.05 233.132 443.179C232.961 443.309 232.73 443.382 232.489 443.382Z" fill="#CCCCCC"/>
<path id="Vector_30" d="M238.852 447.882C238.611 447.882 238.38 447.809 238.21 447.679C238.039 447.549 237.943 447.373 237.943 447.189V389.043C237.943 388.86 238.039 388.684 238.21 388.554C238.38 388.424 238.611 388.351 238.852 388.351C239.094 388.351 239.325 388.424 239.495 388.554C239.666 388.684 239.762 388.86 239.762 389.043V447.189C239.762 447.373 239.666 447.549 239.495 447.679C239.325 447.809 239.094 447.882 238.852 447.882Z" fill="#CCCCCC"/>
<path id="Vector_31" d="M245.216 436.114C244.975 436.114 244.744 436.041 244.573 435.911C244.403 435.781 244.307 435.605 244.307 435.422V400.811C244.307 400.627 244.403 400.451 244.573 400.322C244.744 400.192 244.975 400.119 245.216 400.119C245.457 400.119 245.688 400.192 245.859 400.322C246.029 400.451 246.125 400.627 246.125 400.811V435.422C246.125 435.605 246.029 435.781 245.859 435.911C245.688 436.041 245.457 436.114 245.216 436.114Z" fill="#CCCCCC"/>
<path id="Vector_32" d="M251.579 438.883C251.338 438.883 251.107 438.81 250.937 438.68C250.766 438.55 250.67 438.374 250.67 438.191V398.042C250.67 397.859 250.766 397.683 250.937 397.553C251.107 397.423 251.338 397.35 251.579 397.35C251.82 397.35 252.052 397.423 252.222 397.553C252.393 397.683 252.488 397.859 252.488 398.042V438.191C252.488 438.374 252.393 438.55 252.222 438.68C252.052 438.81 251.82 438.883 251.579 438.883Z" fill="#CCCCCC"/>
<path id="Vector_33" d="M257.943 430.922C257.702 430.922 257.47 430.849 257.3 430.72C257.129 430.59 257.034 430.414 257.034 430.23V406.003C257.034 405.819 257.129 405.643 257.3 405.513C257.47 405.383 257.702 405.31 257.943 405.31C258.184 405.31 258.415 405.383 258.586 405.513C258.756 405.643 258.852 405.819 258.852 406.003V430.23C258.852 430.414 258.756 430.59 258.586 430.72C258.415 430.849 258.184 430.922 257.943 430.922Z" fill="#CCCCCC"/>
<path id="Vector_34" d="M263.397 430.922C263.156 430.922 262.925 430.849 262.754 430.72C262.584 430.59 262.488 430.414 262.488 430.23V406.003C262.488 405.819 262.584 405.643 262.754 405.513C262.925 405.383 263.156 405.31 263.397 405.31C263.638 405.31 263.869 405.383 264.04 405.513C264.21 405.643 264.306 405.819 264.306 406.003V430.23C264.306 430.414 264.21 430.59 264.04 430.72C263.869 430.849 263.638 430.922 263.397 430.922Z" fill="#CCCCCC"/>
<path id="Vector_35" d="M269.761 434.73C269.519 434.73 269.288 434.657 269.118 434.527C268.947 434.397 268.852 434.221 268.852 434.037V402.195C268.852 402.012 268.947 401.836 269.118 401.706C269.288 401.576 269.519 401.503 269.761 401.503C270.002 401.503 270.233 401.576 270.403 401.706C270.574 401.836 270.67 402.012 270.67 402.195V434.037C270.67 434.221 270.574 434.397 270.403 434.527C270.233 434.657 270.002 434.73 269.761 434.73Z" fill="#CCCCCC"/>
<path id="Vector_36" d="M276.124 437.152C275.883 437.152 275.652 437.079 275.481 436.95C275.311 436.82 275.215 436.644 275.215 436.46V399.773C275.215 399.589 275.311 399.413 275.481 399.283C275.652 399.153 275.883 399.081 276.124 399.081C276.365 399.081 276.596 399.153 276.767 399.283C276.937 399.413 277.033 399.589 277.033 399.773V436.46C277.033 436.644 276.937 436.82 276.767 436.95C276.596 437.079 276.365 437.152 276.124 437.152Z" fill="#CCCCCC"/>
<path id="Vector_37" d="M282.487 443.382C282.246 443.382 282.015 443.309 281.845 443.179C281.674 443.05 281.578 442.874 281.578 442.69V393.543C281.578 393.359 281.674 393.183 281.845 393.053C282.015 392.924 282.246 392.851 282.487 392.851C282.729 392.851 282.96 392.924 283.13 393.053C283.301 393.183 283.397 393.359 283.397 393.543V442.69C283.397 442.874 283.301 443.05 283.13 443.179C282.96 443.309 282.729 443.382 282.487 443.382Z" fill="#CCCCCC"/>
<path id="Vector_38" d="M288.851 463.802C288.61 463.802 288.379 463.73 288.208 463.6C288.038 463.47 287.942 463.294 287.942 463.11V373.122C287.942 372.939 288.038 372.763 288.208 372.633C288.379 372.503 288.61 372.43 288.851 372.43C289.092 372.43 289.323 372.503 289.494 372.633C289.664 372.763 289.76 372.939 289.76 373.122V463.11C289.76 463.294 289.664 463.47 289.494 463.6C289.323 463.73 289.092 463.802 288.851 463.802Z" fill="#CCCCCC"/>
<path id="Vector_39" d="M295.214 443.382C294.973 443.382 294.742 443.309 294.572 443.179C294.401 443.05 294.305 442.874 294.305 442.69V393.543C294.305 393.359 294.401 393.183 294.572 393.053C294.742 392.924 294.973 392.851 295.214 392.851C295.455 392.851 295.687 392.924 295.857 393.053C296.028 393.183 296.123 393.359 296.123 393.543V442.69C296.123 442.874 296.028 443.05 295.857 443.179C295.687 443.309 295.455 443.382 295.214 443.382Z" fill="#CCCCCC"/>
<path id="Vector_40" d="M301.578 447.882C301.337 447.882 301.105 447.809 300.935 447.679C300.764 447.549 300.669 447.373 300.669 447.189V389.043C300.669 388.86 300.764 388.684 300.935 388.554C301.105 388.424 301.337 388.351 301.578 388.351C301.819 388.351 302.05 388.424 302.221 388.554C302.391 388.684 302.487 388.86 302.487 389.043V447.189C302.487 447.373 302.391 447.549 302.221 447.679C302.05 447.809 301.819 447.882 301.578 447.882Z" fill="#CCCCCC"/>
<path id="Vector_41" d="M307.941 436.114C307.7 436.114 307.469 436.041 307.298 435.911C307.128 435.781 307.032 435.605 307.032 435.422V400.811C307.032 400.627 307.128 400.451 307.298 400.322C307.469 400.192 307.7 400.119 307.941 400.119C308.182 400.119 308.414 400.192 308.584 400.322C308.755 400.451 308.85 400.627 308.85 400.811V435.422C308.85 435.605 308.755 435.781 308.584 435.911C308.414 436.041 308.182 436.114 307.941 436.114Z" fill="#CCCCCC"/>
<path id="Vector_42" d="M314.305 438.883C314.064 438.883 313.832 438.81 313.662 438.68C313.491 438.55 313.396 438.374 313.396 438.191V398.042C313.396 397.859 313.491 397.683 313.662 397.553C313.832 397.423 314.064 397.35 314.305 397.35C314.546 397.35 314.777 397.423 314.947 397.553C315.118 397.683 315.214 397.859 315.214 398.042V438.191C315.214 438.374 315.118 438.55 314.947 438.68C314.777 438.81 314.546 438.883 314.305 438.883Z" fill="#CCCCCC"/>
<path id="Vector_43" d="M320.668 430.922C320.427 430.922 320.196 430.849 320.025 430.72C319.855 430.59 319.759 430.414 319.759 430.23V406.003C319.759 405.819 319.855 405.643 320.025 405.513C320.196 405.383 320.427 405.31 320.668 405.31C320.909 405.31 321.14 405.383 321.311 405.513C321.481 405.643 321.577 405.819 321.577 406.003V430.23C321.577 430.414 321.481 430.59 321.311 430.72C321.14 430.849 320.909 430.922 320.668 430.922Z" fill="#CCCCCC"/>
<path id="Vector_44" d="M100.675 598.107V622.819L126.129 610.463L100.675 598.107Z" fill="#3F3D56"/>
<path id="Vector_45" d="M208.997 620.266C216.086 614.873 216.071 606.109 208.963 600.691C201.855 595.273 190.346 595.254 183.256 600.647C176.167 606.04 176.182 614.804 183.29 620.222C190.398 625.639 201.907 625.659 208.997 620.266Z" fill="#6C63FF"/>
<path id="Vector_46" d="M275.479 621.532H269.251C268.426 621.532 267.634 621.283 267.05 620.839C266.465 620.395 266.136 619.793 266.133 619.164V601.762C266.136 601.133 266.465 600.53 267.049 600.085C267.634 599.64 268.425 599.39 269.251 599.388H275.479C276.306 599.388 277.099 599.638 277.683 600.083C278.268 600.529 278.597 601.132 278.597 601.762V619.171C278.595 619.482 278.514 619.79 278.357 620.077C278.199 620.364 277.969 620.624 277.68 620.843C277.39 621.063 277.047 621.236 276.669 621.354C276.291 621.472 275.887 621.533 275.479 621.532V621.532ZM295.214 619.171V601.762C295.214 601.134 294.887 600.531 294.304 600.086C293.721 599.641 292.931 599.39 292.105 599.388H285.869C285.043 599.39 284.251 599.64 283.667 600.085C283.083 600.53 282.753 601.133 282.751 601.762V619.171C282.753 619.8 283.083 620.402 283.668 620.846C284.252 621.29 285.044 621.539 285.869 621.539H292.105C292.514 621.539 292.918 621.478 293.295 621.359C293.672 621.24 294.015 621.065 294.304 620.845C294.592 620.626 294.821 620.365 294.978 620.077C295.134 619.79 295.214 619.482 295.214 619.171H295.214Z" fill="#3F3D56"/>
<path id="Vector_47" d="M277.621 501.884H118.268C117.981 501.883 117.707 501.796 117.505 501.641C117.302 501.487 117.189 501.278 117.189 501.059C117.189 500.841 117.302 500.632 117.505 500.477C117.707 500.323 117.981 500.236 118.268 500.235H277.621C277.908 500.235 278.184 500.322 278.387 500.477C278.59 500.631 278.704 500.841 278.704 501.059C278.704 501.278 278.59 501.488 278.387 501.642C278.184 501.797 277.908 501.884 277.621 501.884V501.884Z" fill="#CCCCCC"/>
<path id="Vector_48" d="M277.621 335.752H118.268C117.981 335.752 117.707 335.665 117.505 335.51C117.302 335.356 117.189 335.146 117.189 334.928C117.189 334.71 117.302 334.501 117.505 334.346C117.707 334.192 117.981 334.104 118.268 334.104H277.621C277.908 334.104 278.182 334.192 278.385 334.346C278.587 334.501 278.701 334.71 278.701 334.928C278.701 335.146 278.587 335.356 278.385 335.51C278.182 335.665 277.908 335.752 277.621 335.752V335.752Z" fill="#CCCCCC"/>
</g>
<path id="parca1" d="M552.63 317.472C552.508 317.472 552.386 317.464 552.264 317.448L518.071 312.959C517.569 312.892 517.095 312.692 516.697 312.38C516.3 312.067 515.993 311.654 515.809 311.182C515.626 310.711 515.572 310.199 515.654 309.7C515.736 309.201 515.95 308.732 516.274 308.344L540.109 279.941C540.433 279.55 540.856 279.253 541.335 279.082C541.813 278.911 542.329 278.873 542.827 278.971C543.326 279.069 543.788 279.3 544.167 279.639C544.545 279.978 544.824 280.413 544.976 280.898L555.324 313.793C555.458 314.216 555.49 314.665 555.418 315.103C555.346 315.541 555.172 315.956 554.909 316.315C554.647 316.673 554.304 316.964 553.908 317.165C553.512 317.366 553.075 317.471 552.63 317.472L552.63 317.472Z" fill="#F2F2F2"/>
<path id="parca2" d="M488.589 471.417C487.846 471.417 487.134 471.124 486.605 470.603C486.076 470.081 485.774 469.373 485.764 468.63L485.323 431.555C485.313 431.047 485.441 430.546 485.692 430.104C485.944 429.663 486.31 429.298 486.752 429.047C487.194 428.796 487.695 428.67 488.203 428.68C488.711 428.691 489.206 428.838 489.637 429.107L518.928 447.307C519.332 447.557 519.666 447.905 519.9 448.318C520.134 448.732 520.26 449.198 520.266 449.673C520.272 450.148 520.159 450.617 519.936 451.036C519.713 451.456 519.388 451.813 518.991 452.073L490.134 470.959C489.686 471.251 489.165 471.41 488.63 471.417H488.589Z" fill="#F2F2F2"/>
<path id="parca3" d="M760.589 528.417C759.846 528.417 759.134 528.124 758.605 527.603C758.076 527.081 757.774 526.373 757.764 525.63L757.323 488.555C757.313 488.047 757.441 487.546 757.692 487.104C757.944 486.663 758.31 486.298 758.752 486.047C759.194 485.796 759.695 485.67 760.203 485.68C760.711 485.691 761.206 485.838 761.637 486.107L790.928 504.307C791.332 504.557 791.666 504.905 791.9 505.318C792.134 505.732 792.26 506.198 792.266 506.673C792.272 507.148 792.159 507.617 791.936 508.036C791.713 508.456 791.388 508.813 790.991 509.073L762.134 527.959C761.686 528.251 761.165 528.41 760.63 528.417H760.589Z" fill="#F2F2F2"/>
<g id="Ablamiz">
<path id="Vector_49" d="M618.19 403.649C610.08 399.924 604.749 389.272 605.053 378.768C605.356 368.263 610.884 358.439 618.509 353.43C622.226 351.048 626.476 349.627 630.878 349.294C635.28 348.962 639.695 349.728 643.728 351.524C651.911 355.007 662.897 355.956 667.815 364.613C671.595 371.266 670.233 386.108 667.557 393.505C665.244 399.899 659.589 403.502 654.074 405.518C647.97 407.729 641.462 408.604 634.99 408.083C628.518 407.561 622.234 405.656 616.563 402.496" fill="#2F2E41"/>
<path id="Vector_50" d="M707.894 697.404L696.404 701.68L674.442 659.397L691.399 653.086L707.894 697.404Z" fill="#FFB8B8"/>
<path id="Vector_51" d="M686.975 701.452L709.134 693.204L714.327 707.156L678.216 720.596C677.534 718.764 677.22 716.816 677.291 714.862C677.362 712.908 677.817 710.988 678.631 709.21C679.444 707.432 680.6 705.832 682.031 704.501C683.463 703.17 685.143 702.134 686.975 701.452Z" fill="#2F2E41"/>
<path id="Vector_52" d="M597.676 709.212H585.416L579.584 661.924H597.678L597.676 709.212Z" fill="#FFB8B8"/>
<path id="Vector_53" d="M576.659 705.709H600.303V720.596H561.772C561.772 718.641 562.158 716.705 562.906 714.899C563.654 713.092 564.75 711.451 566.133 710.069C567.515 708.687 569.156 707.59 570.962 706.842C572.768 706.094 574.704 705.709 576.659 705.709V705.709Z" fill="#2F2E41"/>
<path id="Vector_54" d="M560.399 538.758C561.961 538.59 563.467 538.082 564.811 537.269C566.155 536.456 567.304 535.359 568.178 534.054C569.052 532.749 569.629 531.269 569.869 529.716C570.108 528.164 570.005 526.579 569.565 525.071L609.893 455.498L595.788 449.857L555.475 517.879C552.991 518.786 550.925 520.571 549.67 522.898C548.415 525.226 548.057 527.932 548.664 530.506C549.271 533.079 550.801 535.341 552.964 536.862C555.127 538.383 557.772 539.057 560.399 538.758V538.758Z" fill="#FFB8B8"/>
<path id="Vector_55" d="M600.835 480.231L579.402 466.913L599.613 430.085C600.502 428.464 601.707 427.039 603.157 425.892C604.607 424.746 606.273 423.902 608.055 423.41C609.836 422.919 611.699 422.789 613.531 423.03C615.364 423.271 617.13 423.877 618.724 424.812C620.319 425.747 621.71 426.992 622.814 428.474C623.919 429.956 624.716 431.645 625.156 433.44C625.597 435.235 625.673 437.1 625.381 438.925C625.088 440.75 624.432 442.498 623.452 444.066L600.835 480.231Z" fill="#2F2E41"/>
<path id="Vector_56" d="M682.672 677.125C681.84 677.125 681.025 676.893 680.317 676.455C679.61 676.018 679.038 675.392 678.666 674.648L625.345 564.894C625.017 564.247 624.496 563.718 623.855 563.38C623.213 563.042 622.482 562.911 621.763 563.006C621.044 563.102 620.373 563.418 619.841 563.912C619.31 564.405 618.945 565.051 618.797 565.761L599.8 670.367C599.588 671.38 599.034 672.29 598.232 672.944C597.43 673.598 596.428 673.957 595.393 673.961H583.291C582.167 673.966 581.082 673.548 580.252 672.791C579.421 672.033 578.906 670.991 578.809 669.871C571.374 588.286 575.397 528.916 590.767 493.412C591.202 492.425 591.974 491.626 592.946 491.159C593.917 490.692 595.024 490.587 596.066 490.863L657.505 507.368C658.279 507.577 658.983 507.987 659.545 508.558C660.107 509.129 660.506 509.84 660.702 510.616L699.21 667.687C699.488 668.799 699.331 669.975 698.772 670.976C698.213 671.976 697.293 672.726 696.2 673.072L684.039 676.913C683.597 677.053 683.136 677.125 682.672 677.125V677.125Z" fill="#2F2E41"/>
<path id="Vector_57" d="M634.947 413.608C648.512 413.608 659.508 402.612 659.508 389.047C659.508 375.483 648.512 364.486 634.947 364.486C621.383 364.486 610.386 375.483 610.386 389.047C610.386 402.612 621.383 413.608 634.947 413.608Z" fill="#FFB8B8"/>
<path id="Vector_58" d="M658.144 424.961C658.144 424.961 636.144 412.961 619.144 425.961C619.144 425.961 597.644 447.461 604.644 468.461L587.144 517.961C600.991 544.217 641.529 539.966 661.144 517.961L659.644 470.461L658.144 424.961Z" fill="#6C63FF"/>
<path id="Vector_59" d="M672.07 557.186C668.244 557.291 664.451 556.447 661.029 554.732C655.628 551.834 652.304 546.383 651.149 538.533C649.221 525.421 650.81 507.397 652.492 488.314C654.679 463.496 656.941 437.834 650.885 423.711C650.569 422.968 650.459 422.153 650.568 421.352C650.676 420.552 650.998 419.795 651.5 419.163C652.003 418.53 652.666 418.044 653.421 417.757C654.176 417.47 654.995 417.392 655.79 417.53L673.016 420.5C673.912 420.658 674.74 421.083 675.392 421.719C676.043 422.355 676.487 423.173 676.666 424.066L700.545 545.372C700.741 546.354 700.603 547.374 700.151 548.269C699.7 549.164 698.963 549.882 698.056 550.309C692.855 552.757 682.059 557.186 672.07 557.186Z" fill="#2F2E41"/>
<path id="Vector_60" d="M581.872 555.573C581.255 555.573 580.644 555.446 580.077 555.201C577.243 553.976 573.325 552.197 568.433 549.914C554.919 543.608 590.558 456.486 597.84 439.086C598.092 438.48 598.475 437.937 598.961 437.497L618.47 419.741C619.222 419.155 620.141 418.823 621.094 418.793C622.047 418.763 622.985 419.037 623.772 419.575C624.559 420.112 625.155 420.886 625.474 421.785C625.793 422.683 625.818 423.66 625.546 424.574C622.123 436.047 616.059 455.28 609.639 475.643C599.507 507.778 589.031 541.007 586.23 552.175C585.986 553.146 585.425 554.008 584.636 554.624C583.846 555.239 582.874 555.574 581.872 555.573L581.872 555.573Z" fill="#2F2E41"/>
<path id="Vector_61" d="M718.992 534.501C719.799 533.154 720.301 531.646 720.462 530.084C720.623 528.522 720.44 526.943 719.925 525.459C719.41 523.976 718.576 522.623 717.481 521.497C716.387 520.37 715.059 519.497 713.591 518.94L682.36 444.836L669.36 452.695L699.362 525.853C698.588 528.382 698.769 531.106 699.87 533.51C700.971 535.914 702.916 537.831 705.336 538.897C707.755 539.963 710.482 540.104 712.999 539.294C715.516 538.484 717.649 536.779 718.992 534.501V534.501Z" fill="#FFB8B8"/>
<path id="Vector_62" d="M673.1 476.05L655.883 437.73C655.126 436.044 654.714 434.223 654.673 432.375C654.631 430.527 654.961 428.689 655.642 426.971C656.323 425.252 657.342 423.688 658.638 422.37C659.935 421.052 661.482 420.008 663.189 419.299C664.896 418.589 666.728 418.23 668.577 418.241C670.425 418.252 672.253 418.634 673.951 419.364C675.65 420.093 677.184 421.156 678.465 422.49C679.745 423.823 680.745 425.4 681.405 427.126L696.642 466.967L673.1 476.05Z" fill="#2F2E41"/>
<path id="Vector_63" d="M652.41 358.477C653.294 358.606 654.196 358.439 654.977 358.004C655.757 357.568 656.372 356.888 656.727 356.067C657.054 355.236 657.187 354.341 657.115 353.45C657.043 352.559 656.768 351.697 656.311 350.929C655.381 349.399 654.083 348.126 652.535 347.226C650.753 346.035 648.692 345.326 646.553 345.168C645.487 345.098 644.417 345.258 643.417 345.638C642.418 346.017 641.511 346.607 640.76 347.367C640.026 348.147 639.542 349.127 639.369 350.183C639.196 351.239 639.342 352.322 639.788 353.295C640.686 355.027 642.57 355.998 644.407 356.657C648.049 357.962 651.928 358.472 655.784 358.152" fill="#2F2E41"/>
<path id="Vector_64" d="M661.144 384.961C657.317 386.075 657.525 384.013 655.427 380.624C653.329 377.235 650.601 373.247 646.621 373.459C643.359 373.633 641.087 376.596 638.762 378.891C634.618 382.98 628.602 385.57 622.915 384.321C617.228 383.073 612.54 377.206 613.789 371.519C614.206 369.939 614.943 368.46 615.954 367.176C616.966 365.892 618.23 364.829 619.669 364.053C622.559 362.519 625.733 361.591 628.994 361.327C636.212 360.497 643.524 361.262 650.414 363.567C655.17 365.163 659.951 367.744 662.318 372.167C664.685 376.59 666.757 382.99 662.144 384.961L661.144 384.961Z" fill="#2F2E41"/>
<path id="Vector_65" d="M649.032 345.807C645.789 341.697 647.01 335.22 650.79 331.596C654.569 327.973 660.189 326.843 665.405 327.304C670.572 327.825 675.512 329.695 679.729 332.727C683.946 335.759 687.291 339.846 689.43 344.579C692.725 352.118 692.698 360.742 695.679 368.411C697.268 372.5 699.677 376.22 702.757 379.342C705.838 382.464 709.525 384.922 713.592 386.566C717.659 388.209 722.019 389.003 726.404 388.898C730.789 388.792 735.106 387.791 739.089 385.954C744.277 383.562 749.217 378.878 748.921 373.172C752.201 385.819 746.293 400.285 735.098 407.02C728.541 410.964 720.775 412.304 713.178 413.225C708.228 413.826 703.139 414.273 698.308 413.035C691.549 411.304 685.89 406.315 682.463 400.238C679.037 394.16 677.689 387.077 677.636 380.1C677.596 374.665 678.307 369.226 677.931 363.804C677.555 358.382 675.925 352.773 671.995 349.019C668.064 345.264 661.431 344.029 657.117 347.336C655.383 348.665 654.113 350.605 652.161 351.586C650.209 352.566 647.125 351.804 646.994 349.623L649.032 345.807Z" fill="#2F2E41"/>
<path id="Vector_66" d="M780.297 722.032H473.003C472.687 722.031 472.385 721.906 472.163 721.682C471.94 721.459 471.815 721.157 471.815 720.842C471.815 720.527 471.94 720.224 472.163 720.001C472.385 719.778 472.687 719.652 473.003 719.651H780.297C780.612 719.652 780.914 719.778 781.136 720.001C781.359 720.224 781.484 720.527 781.484 720.842C781.484 721.157 781.359 721.459 781.136 721.682C780.914 721.906 780.612 722.031 780.297 722.032V722.032Z" fill="#3F3D56"/>
</g>
</g>
<defs>
<clipPath id="clip0_1_2">
<rect width="792.265" height="727.778" fill="white"/>
</clipPath>
</defs>
</svg>
